<svg width="20" height="20" viewBox="0 0 20 20" fill="none" xmlns="http://www.w3.org/2000/svg">
<path d="M10.3599 3.45152C10.4015 2.99319 10.6515 2.74319 11.1099 2.70152H12.3911C12.7661 2.70152 13.1099 2.80569 13.4224 3.01402C13.714 3.22236 13.9224 3.51402 14.0474 3.88902L14.2974 4.60777L15.8911 3.79527C16.0369 3.73277 16.1932 3.70152 16.3599 3.70152H16.6099C16.9224 3.72236 17.089 3.88902 17.1099 4.20152V6.20152C17.089 6.51402 16.9224 6.68069 16.6099 6.70152H16.3599C16.1932 6.70152 16.0369 6.67027 15.8911 6.60777L14.7974 6.04527L15.7349 8.70153C15.7974 8.70153 15.8599 8.70153 15.9224 8.70153C15.9849 8.70153 16.0474 8.70153 16.1099 8.70153C17.5057 8.74319 18.6724 9.22236 19.6099 10.139C19.9015 10.4932 19.9015 10.8474 19.6099 11.2015C19.2765 11.4932 18.9224 11.4932 18.5474 11.2015C17.9015 10.5557 17.089 10.2224 16.1099 10.2015C15.2349 10.2224 14.4849 10.4932 13.8599 11.014C13.2349 11.5557 12.839 12.2432 12.6724 13.0765C12.5682 13.4724 12.3182 13.6807 11.9224 13.7015H10.6099C10.589 13.7015 10.5578 13.7015 10.5161 13.7015H8.10986C8.08903 14.5557 7.79736 15.264 7.23486 15.8265C6.67236 16.389 5.96403 16.6807 5.10986 16.7015C4.2557 16.6807 3.54736 16.389 2.98486 15.8265C2.42236 15.264 2.1307 14.5557 2.10986 13.7015H1.10986C0.818197 13.7015 0.578613 13.6078 0.391113 13.4203C0.203613 13.2328 0.109863 12.9932 0.109863 12.7015V11.7015C0.130697 10.5765 0.516113 9.62861 1.26611 8.85778C2.03695 8.10778 2.98486 7.72236 4.10986 7.70153H7.10986C7.40153 7.70153 7.64111 7.79528 7.82861 7.98278C8.01611 8.17028 8.10986 8.40986 8.10986 8.70153V10.7015C8.10986 10.9932 8.20361 11.2328 8.39111 11.4203C8.57861 11.6078 8.8182 11.7015 9.10986 11.7015H11.5161C12.0786 10.4515 12.9953 9.56611 14.2661 9.04528L12.6411 4.35777C12.5994 4.25361 12.5161 4.20152 12.3911 4.20152H11.1099C10.6515 4.15986 10.4015 3.90986 10.3599 3.45152ZM4.10986 4.70152H7.10986C7.40153 4.70152 7.64111 4.79527 7.82861 4.98277C8.01611 5.17027 8.10986 5.40986 8.10986 5.70152C8.10986 5.99319 8.01611 6.23277 7.82861 6.42027C7.64111 6.60777 7.40153 6.70152 7.10986 6.70152H4.10986C3.8182 6.70152 3.57861 6.60777 3.39111 6.42027C3.20361 6.23277 3.10986 5.99319 3.10986 5.70152C3.10986 5.40986 3.20361 5.17027 3.39111 4.98277C3.57861 4.79527 3.8182 4.70152 4.10986 4.70152ZM5.10986 15.2015C5.52653 15.1807 5.8807 15.0349 6.17236 14.764C6.4432 14.4724 6.58903 14.1182 6.60986 13.7015H3.60986C3.6307 14.1182 3.77653 14.4724 4.04736 14.764C4.33903 15.0349 4.6932 15.1807 5.10986 15.2015ZM16.1099 15.2015C16.6724 15.1807 17.1099 14.9307 17.4224 14.4515C17.6724 13.9515 17.6724 13.4515 17.4224 12.9515C17.1099 12.4724 16.6724 12.2224 16.1099 12.2015C15.5474 12.2224 15.1099 12.4724 14.7974 12.9515C14.5474 13.4515 14.5474 13.9515 14.7974 14.4515C15.1099 14.9307 15.5474 15.1807 16.1099 15.2015ZM16.1099 10.7015C16.6515 10.7015 17.1515 10.8369 17.6099 11.1078C18.0682 11.3786 18.4328 11.7432 18.7036 12.2015C18.9744 12.6807 19.1099 13.1807 19.1099 13.7015C19.1099 14.2224 18.9744 14.7224 18.7036 15.2015C18.4328 15.6599 18.0682 16.0244 17.6099 16.2953C17.1515 16.5661 16.6515 16.7015 16.1099 16.7015C15.5682 16.7015 15.0682 16.5661 14.6099 16.2953C14.1515 16.0244 13.7869 15.6599 13.5161 15.2015C13.2453 14.7224 13.1099 14.2224 13.1099 13.7015C13.1099 13.1807 13.2453 12.6807 13.5161 12.2015C13.7869 11.7432 14.1515 11.3786 14.6099 11.1078C15.0682 10.8369 15.5682 10.7015 16.1099 10.7015Z" fill="#F3265E"/>
</svg>
